<svg xmlns="http://www.w3.org/2000/svg" enable-background="new 0 0 512 512" viewBox="0 0 512 512"><linearGradient id="a" x1="257.393" x2="254.393" y1="163.021" y2="359.021" gradientUnits="userSpaceOnUse"><stop offset="0" stop-color="#ea8928"/><stop offset="1" stop-color="#cf2b8f"/></linearGradient><path fill="url(#a)" d="M398.9,167.6c-11.2-13.3-31.9-18.7-71.3-18.7H184.4c-40.4,0-61.4,5.8-72.5,19.9
		C101,182.7,101,203,101,231.2v53.7c0,54.6,12.9,82.2,83.4,82.2h143.2c34.2,0,53.2-4.8,65.4-16.5c12.6-12,17.9-31.7,17.9-65.7v-53.7
		C411,201.5,410.2,181,398.9,167.6z M300,265.4l-65,34c-1.5,0.8-3,1.1-4.6,1.1c-1.8,0-3.6-0.5-5.2-1.4c-3-1.8-4.8-5.1-4.8-8.6v-67.8
		c0-3.5,1.8-6.7,4.8-8.5c3-1.8,6.7-1.9,9.8-0.3l65,33.8c3.3,1.7,5.4,5.1,5.4,8.9C305.4,260.3,303.3,263.7,300,265.4z"/></svg>